# xmcd
#
# Track frame offsets:
#	150
#	13512
#	27237
#	45560
#	61389
#	77273
#	94689
#	110908
#	122362
#	143708
#	164774
#	179137
#	193810
#	196984
#
# Disc length: 2791 seconds
#
# Revision: 1
# Processed by: cddbd v1.5.1PL0 Copyright (c) Steve Scherf et al.
# Submitted via: EasyCDDAExtractor 7.0.6.1
#
DISCID=be0ae50e
DTITLE=Squeeze - East Side Story
DYEAR=1981
DGENRE=Country
TTITLE0=In Quintessence
TTITLE1=Someone Else's Heart
TTITLE2=Tempted
TTITLE3=Piccadilly
TTITLE4=There's No Tomorrow
TTITLE5=Heaven
TTITLE6=Woman's World
TTITLE7=Is That Love
TTITLE8=F-Hole
TTITLE9=Labelled With Love
TTITLE10=Someone Else's Bell
TTITLE11=Mumbo Jumbo
TTITLE12=Vanity Fair
TTITLE13=Messed Around
EXTD=
EXTT0=
EXTT1=
EXTT2=
EXTT3=
EXTT4=
EXTT5=
EXTT6=
EXTT7=
EXTT8=
EXTT9=
EXTT10=
EXTT11=
EXTT12=
EXTT13=
PLAYORDER=
